<?xml version="1.0" standalone="no"?><!DOCTYPE svg PUBLIC "-//W3C//DTD SVG 1.1//EN" "http://www.w3.org/Graphics/SVG/1.1/DTD/svg11.dtd"><svg t="1728896377471" class="icon" viewBox="0 0 1024 1024" version="1.1" xmlns="http://www.w3.org/2000/svg" p-id="2550" xmlns:xlink="http://www.w3.org/1999/xlink" width="200" height="200"><path d="M132.266667 0h518.4L938.666667 288v689.066667a46.933333 46.933333 0 0 1-46.933334 46.933333H132.266667A46.933333 46.933333 0 0 1 85.333333 977.066667V46.933333A46.933333 46.933333 0 0 1 132.266667 0z" fill="#EF5E5E" p-id="2551"></path><path d="M274.624 640v-183.253333h59.370667c22.506667 0 37.162667 0.917333 44.010666 2.773333 10.496 2.730667 19.285333 8.704 26.368 17.92 7.082667 9.216 10.624 21.12 10.624 35.690667 0 11.242667-2.048 20.693333-6.122666 28.373333-4.074667 7.68-9.28 13.674667-15.573334 18.048-6.272 4.394667-12.672 7.274667-19.178666 8.704-8.832 1.749333-21.632 2.624-38.378667 2.624h-24.106667V640H274.602667z m36.992-152.256v52.010667h20.266667c14.570667 0 24.32-0.96 29.226666-2.88 4.928-1.92 8.789333-4.906667 11.584-9.002667 2.773333-4.074667 4.181333-8.832 4.181334-14.250667 0-6.656-1.962667-12.16-5.866667-16.490666a25.6 25.6 0 0 0-14.890667-8.128c-4.416-0.853333-13.290667-1.258667-26.624-1.258667h-17.877333z m133.632-30.997333h67.626667c15.253333 0 26.88 1.173333 34.88 3.498666 10.752 3.178667 19.946667 8.789333 27.626666 16.874667 7.68 8.106667 13.504 17.984 17.493334 29.696 4.010667 11.712 5.994667 26.133333 5.994666 43.306667 0 15.082667-1.877333 28.096-5.610666 38.997333-4.586667 13.333333-11.136 24.128-19.626667 32.384-6.421333 6.250667-15.082667 11.114667-26.026667 14.613333-8.149333 2.581333-19.072 3.882667-32.725333 3.882667H445.226667v-183.253333z m36.992 30.997333v121.386667H509.866667c10.346667 0 17.792-0.597333 22.4-1.749334a34.133333 34.133333 0 0 0 14.933333-7.637333c3.946667-3.584 7.168-9.472 9.685333-17.685333 2.496-8.213333 3.733333-19.392 3.733334-33.557334 0-14.165333-1.237333-25.045333-3.733334-32.64-2.517333-7.573333-6.016-13.482667-10.517333-17.728a35.2 35.2 0 0 0-17.109333-8.64c-5.184-1.152-15.296-1.749333-30.378667-1.749333h-16.64zM630.506667 640v-183.253333h125.610666v30.997333H667.52v43.370667h76.501333v31.018666h-76.501333V640h-36.992z" fill="#FFFFFF" p-id="2552"></path><path d="M650.666667 0v241.066667a46.933333 46.933333 0 0 0 46.933333 46.933333H938.666667L650.666667 0z" fill="#FFFFFF" p-id="2553"></path></svg>