<?xml version="1.0" standalone="no"?><!DOCTYPE svg PUBLIC "-//W3C//DTD SVG 1.1//EN" "http://www.w3.org/Graphics/SVG/1.1/DTD/svg11.dtd"><svg t="1728896381649" class="icon" viewBox="0 0 1024 1024" version="1.1" xmlns="http://www.w3.org/2000/svg" p-id="2703" xmlns:xlink="http://www.w3.org/1999/xlink" width="200" height="200"><path d="M81.92 92.672c0-21.504 10.752-43.008 25.08799999-60.928S146.432 10.23999999 167.936 10.23999999h516.096l258.048 250.88000001v670.208c0 21.504-10.752 43.008-25.08799999 57.344S877.568 1013.76000001 856.064 1013.76000001H167.936c-46.59199999 0-86.016-35.84-86.016-82.43200001V92.672z" fill="#DDDDDD" p-id="2704"></path><path d="M948.90666667 257.13777778h-174.76266667c-47.33155555 0-87.38133333-36.40888889-87.38133333-83.74044445V2.27555555l262.144 254.86222223z" fill="#BABABA" p-id="2705"></path><path d="M670.2825472 447.31451165c0-71.33812053-70.65654613-129.13795982-157.810688-129.13795983-27.30957938 0-48.69470435 1.47965725-82.48797867 19.11321031-33.79327431 17.52287005-68.83318898 52.90648462-75.88777528 104.44982045-2.50493155 17.97725298 7.62547769 38.23224605 27.99115377 38.23224604 20.36567609 0 29.24361955-11.26636658 29.35430258-28.32902827 0-30.83395982 12.28581547-51.65401885 40.73135218-66.10689137 15.81602133-9.3323264 39.25169493-15.24512995 65.536-15.24512996 27.19307093 0 66.33408285 11.72074951 81.92291271 28.7834112 15.47232142 17.17917013 21.3909504 27.99115378 21.96184178 44.71594098 1.70684871 51.19963591-59.73387947 73.49935218-90.34064782 104.56050347-24.46094791 24.68813938-41.30224355 51.99771875-46.87717263 65.87969991-5.46424605 13.99266418-4.54965475 24.23375645-4.54965475 36.86327182v9.89739235c0.6815744 13.99266418 13.20040675 27.30375395 28.21834524 27.30375396 14.90725547 0 28.89991965-12.28581547 28.55621974-27.87464533 0.11650845-0.22719147 0-14.90725547 0-16.61410418 0.6815744-15.01793849 2.84280605-25.94060515 6.25650346-32.99519147 4.6661632-9.3323264 16.84129565-21.50163342 36.29238044-36.63608035 37.66135467-29.35430258 62.23881102-52.56278471 73.72654365-69.63127183 11.60424107-17.17917013 17.4063616-36.63025493 17.4063616-57.2289479z m-198.08765725 327.56931697a38.68080355 38.68080355 0 1 0 77.37325796 0 38.68080355 38.68080355 0 1 0-77.37325796 0z" fill="#FFFFFF" p-id="2706"></path></svg>